<?xml version="1.0" encoding="UTF-8"?>
<svg version="1.1" xmlns="http://www.w3.org/2000/svg" width="512" height="512">
<path d="M0 0 C3.24831679 2.64606476 5.64562166 4.93686498 7 9 C7.51643481 15.30050466 6.99637607 17.83995369 3 23 C0.2578125 25.38671875 0.2578125 25.38671875 -2.875 27.6875 C-4.02402648 28.54478407 -5.172441 29.40288882 -6.3203125 30.26171875 C-6.9174707 30.70435059 -7.51462891 31.14698242 -8.12988281 31.60302734 C-11.3711967 34.02428036 -14.56173217 36.50955264 -17.75 39 C-18.35827637 39.46881592 -18.96655273 39.93763184 -19.59326172 40.4206543 C-22.76833922 42.79773131 -22.76833922 42.79773131 -25 46 C-24.21625 46.04125 -23.4325 46.0825 -22.625 46.125 C-11.58574368 48.78964808 -2.75694714 57.09987477 3.37109375 66.3125 C10.16611376 77.52346827 14.41818205 90.86061125 15 104 C15.0515625 104.84304688 15.103125 105.68609375 15.15625 106.5546875 C15.37724782 112.76104301 14.706325 117.09320648 10.3125 121.8125 C6.99137028 123.51794499 3.69464135 124.0131301 0 124 C-2.62055902 123.08876016 -4.62554462 122.21222005 -7 120.875 C-7.65355469 120.52824219 -8.30710938 120.18148437 -8.98046875 119.82421875 C-10.46607175 119.03135595 -11.94622267 118.22822452 -13.421875 117.41699219 C-16.3961275 115.78227992 -19.38499446 114.17602342 -22.375 112.5703125 C-28.26211846 109.40225921 -34.13496464 106.20872676 -40 103 C-38.57742141 123.7068993 -32.17548676 149.41134897 -16 164 C-15.02804688 163.5153125 -14.05609375 163.030625 -13.0546875 162.53125 C13.85577378 149.34675169 45.70901493 138 76 138 C76 111.27 76 84.54 76 57 C62.44767475 57.15799647 62.44767475 57.15799647 48.89599609 57.36035156 C47.18848676 57.37204142 45.48096623 57.38223255 43.7734375 57.390625 C42.89727783 57.41108887 42.02111816 57.43155273 41.1184082 57.45263672 C35.60514269 57.45576481 32.2447469 56.87231601 28 53 C24.42082561 47.91567142 24.54713687 42.99062724 24.56640625 37 C24.5611644 36.04609375 24.55592255 35.0921875 24.55052185 34.109375 C24.54411804 32.09896821 24.54541733 30.08852386 24.55395508 28.078125 C24.56247297 25.00973625 24.53366775 21.94320548 24.50195312 18.875 C24.50034107 16.91666722 24.50091872 14.95833116 24.50390625 13 C24.49267227 12.08734375 24.48143829 11.1746875 24.46986389 10.234375 C24.53069636 4.65045724 25.27198283 1.42998146 29 -3 C33.87101508 -7.41435742 38.85596884 -7.15198606 45.17749023 -7.16113281 C45.99909637 -7.16609772 46.82070251 -7.17106262 47.66720581 -7.17617798 C50.38101035 -7.19076518 53.09475648 -7.19759499 55.80859375 -7.203125 C57.69661968 -7.20887821 59.5846456 -7.21463592 61.47267151 -7.22039795 C65.4294563 -7.23089738 69.38622082 -7.23674733 73.34301758 -7.24023438 C78.41170251 -7.24572437 83.48011954 -7.26976763 88.54872036 -7.29820633 C92.44778731 -7.31683149 96.34678961 -7.32203819 100.24589729 -7.32357025 C102.11459891 -7.32659634 103.9832994 -7.33462339 105.85195732 -7.34775543 C108.46588436 -7.36481738 111.07915505 -7.36293569 113.69311523 -7.35644531 C114.46366745 -7.3656601 115.23421967 -7.37487488 116.02812195 -7.3843689 C120.52336562 -7.34941867 123.4328677 -6.79795766 127 -4 C128 -2 128 -2 128 5 C134.27 4.67 140.54 4.34 147 4 C147.33 1.69 147.66 -0.62 148 -3 C149.57885966 -5.05938216 150.69142423 -5.84571211 153 -7 C155.18388557 -7.15081282 157.37359667 -7.22166468 159.5625 -7.25 C161.32787109 -7.28867188 161.32787109 -7.28867188 163.12890625 -7.328125 C171.97973609 -6.5779033 178.09515137 -2.9836468 185.0625 2.3125 C185.81337891 2.86873047 186.56425781 3.42496094 187.33789062 3.99804688 C188.83151163 5.10696688 190.32071072 6.2218705 191.80517578 7.34301758 C193.28761205 8.46218275 194.77574423 9.57383706 196.26904297 10.6784668 C196.98334473 11.20738525 197.69764648 11.73630371 198.43359375 12.28125 C199.07224365 12.75240234 199.71089355 13.22355469 200.36889648 13.70898438 C203.60953117 16.27394115 204.73548656 18.41791017 205.4140625 22.4765625 C205.77242427 27.29453736 205.60826976 31.05515882 202.5625 34.9375 C196.87313803 40.56880726 189.92907811 45.17947984 183.21777344 49.51025391 C180.97885964 50.95220008 180.97885964 50.95220008 179.02441406 52.68896484 C170.24720394 59.43408165 158.84743905 57.63430588 148.375 57.375 C141.32125 57.25125 134.2675 57.1275 127 57 C127 83.73 127 110.46 127 138 C131.29 138.33 135.58 138.66 140 139 C143.97314165 139.63717712 147.87686445 140.31693491 151.8125 141.125 C152.88218018 141.34381836 153.95186035 141.56263672 155.05395508 141.78808594 C193.91911712 150.00863066 230.81608891 166.20697766 262 191 C262.9075 191.71542969 263.815 192.43085938 264.75 193.16796875 C279.85759789 205.29267444 294.07456405 218.71260604 306 234 C306.78890625 234.98355469 307.5778125 235.96710938 308.390625 236.98046875 C338.57919166 274.95057891 338.57919166 274.95057891 337 292 C335.21131297 297.16731808 332.46969681 299.90559452 328 303 C323.04698361 304.72878135 318.51157993 305.28795561 313.30777931 305.25447559 C312.56120272 305.25768207 311.81462613 305.26088855 311.04542601 305.26419219 C308.54775278 305.27248297 306.05031991 305.26657117 303.55264282 305.26069641 C301.74222671 305.26371751 299.93181187 305.26760679 298.12139928 305.27228898 C293.14927737 305.28258301 288.17722744 305.28038357 283.20509958 305.27610838 C277.84166591 305.27364372 272.47824969 305.2826521 267.11482239 305.29014587 C256.60838317 305.30290209 246.1019695 305.30468542 235.59552385 305.30234561 C227.05648134 305.30056333 218.51744658 305.30231016 209.978405 305.30657005 C208.76356835 305.30716524 207.5487317 305.30776043 206.29708182 305.30837366 C203.82922114 305.30958539 201.36136046 305.31079953 198.89349978 305.31201603 C175.74432825 305.32289511 152.5951713 305.32072733 129.44599895 305.31463119 C108.26493177 305.30946164 87.08391057 305.32071784 65.90285249 305.33972941 C44.15775444 305.35909772 22.41267816 305.36736558 0.66757143 305.36360615 C-11.54209317 305.36169259 -23.75171862 305.36419679 -35.96137619 305.37832069 C-46.3554777 305.39022263 -56.74951597 305.3916527 -67.14361833 305.37953053 C-72.44697089 305.37363354 -77.75020771 305.37256512 -83.05355263 305.38453293 C-87.90932826 305.39536341 -92.76489112 305.39232211 -97.62065668 305.37827124 C-99.3763159 305.37561651 -101.13199164 305.37801517 -102.88763468 305.38600711 C-122.64709816 305.46970436 -122.64709816 305.46970436 -129.15625 300.28125 C-129.5996875 299.6934375 -130.043125 299.105625 -130.5 298.5 C-130.9640625 297.9121875 -131.428125 297.324375 -131.90625 296.71875 C-134.62991805 292.43870021 -134.88923048 287.86461381 -134 283 C-129.49359428 271.78192618 -122.30554908 255.6904279 -112 249 C-108.61498997 249.17211915 -106.03717538 249.48141231 -103 251 C-99.7 246.71 -96.4 242.42 -93 238 C-93.66 236.68 -94.32 235.36 -95 234 C-96.41867449 231.16265101 -96.29159741 229.1453641 -96 226 C-94.48828125 223.68359375 -94.48828125 223.68359375 -92.3125 221.4375 C-91.50296875 220.59058594 -90.6934375 219.74367188 -89.859375 218.87109375 C-88.9078646 217.9124572 -87.95461083 216.95554918 -87 216 C-86.44892578 215.44199707 -85.89785156 214.88399414 -85.33007812 214.30908203 C-81.58005033 210.51202212 -77.79803689 206.7489948 -74 203 C-73.34 202.34 -72.68 201.68 -72 201 C-72.40726318 200.18716553 -72.40726318 200.18716553 -72.82275391 199.35791016 C-86.06440296 172.74572591 -94.29730485 145.40221144 -94.0625 115.4375 C-94.05798828 114.33341797 -94.05347656 113.22933594 -94.04882812 112.09179688 C-94.0371514 109.394473 -94.02077525 106.69726653 -94 104 C-96.83356241 105.93716513 -99.66681225 107.87478696 -102.5 109.8125 C-103.35263428 110.39547852 -104.20526855 110.97845703 -105.08374023 111.57910156 C-109.31202792 114.47145907 -113.53747989 117.3677162 -117.75390625 120.27734375 C-118.48222656 120.77967529 -119.21054688 121.28200684 -119.9609375 121.79956055 C-121.34059467 122.7517612 -122.71952546 123.70501535 -124.09765625 124.65942383 C-129.77800072 128.57871359 -133.11331291 129.78837495 -140 129 C-143.38012411 127.56031751 -145.25668378 126.40501341 -146.99609375 123.1171875 C-149.19493582 117.24659478 -149.71643106 111.22079353 -150 105 C-150.04125 104.19820313 -150.0825 103.39640625 -150.125 102.5703125 C-150.63143066 83.26264357 -145.16437851 65.59299566 -132.3515625 51.140625 C-131 50 -131 50 -129 50 C-131.89594888 46.88918902 -134.83223037 44.69883417 -138.46484375 42.50390625 C-139.51220703 41.86259766 -140.55957031 41.22128906 -141.63867188 40.56054688 C-143.83330212 39.23129481 -146.02861235 37.90316473 -148.22460938 36.57617188 C-149.27326172 35.93357422 -150.32191406 35.29097656 -151.40234375 34.62890625 C-152.35616943 34.05213135 -153.30999512 33.47535645 -154.29272461 32.88110352 C-157.77983287 30.45814661 -161.07522437 27.84955126 -163 24 C-163.63384658 18.9654472 -163.65574849 15.158489 -161.125 10.6875 C-151.62535927 1.26768818 -135.76346766 -0.98594332 -123 -1 C-108.88344139 -0.42612822 -96.46590374 3.26841198 -84 10 C-83.64550781 9.5875 -83.29101562 9.175 -82.92578125 8.75 C-62.03381808 -13.91246853 -25.18910259 -16.696541 0 0 Z " fill="#010101" transform="translate(163,194)"/>
<path d="M0 0 C1.4140625 2.30078125 1.4140625 2.30078125 2.625 5.3125 C6.633205 14.01425075 12.87526629 20.67988613 20.28125 26.72265625 C23 29 23 29 24 31 C24.61001622 38.23330285 23.44915537 45.06526337 22 52.125 C19.05462135 64.64878235 19.05462135 64.64878235 22.61328125 76.46875 C25.22716421 79.35506583 28.42099057 80.62443766 32 82 C32.70382813 82.2990625 33.40765625 82.598125 34.1328125 82.90625 C40.83835499 85.50194387 48.08944228 86.51765712 54.91137695 83.87011719 C58.67215568 81.59301933 59.94664087 79.49527487 62.09375 75.6796875 C62.44836304 75.0615921 62.80297607 74.4434967 63.16833496 73.80667114 C64.29420812 71.83769435 65.39772164 69.85726473 66.5 67.875 C67.96324972 65.28592684 69.43450314 62.70143787 70.90625 60.1171875 C71.43557129 59.18407745 71.43557129 59.18407745 71.97558594 58.2321167 C79.79994305 44.51067192 79.79994305 44.51067192 84 41 C86.85940594 40.50646715 89.55358953 40.20256005 92.4375 40 C93.32332764 39.92515381 94.20915527 39.85030762 95.12182617 39.77319336 C99.12197104 39.43965474 103.12445722 39.14007109 107.12731934 38.84112549 C111.88217177 38.48581586 116.63620208 38.12156609 121.38967896 37.74829102 C123.77861931 37.5650981 126.16829625 37.39646716 128.55834961 37.22851562 C130.06629163 37.11260374 131.5741877 36.99609213 133.08203125 36.87890625 C134.10144302 36.81323204 134.10144302 36.81323204 135.14144897 36.74623108 C143.02061034 36.1012079 149.42640927 33.70026325 155 28 C158.86665336 21.63870166 161.07786463 14.46373612 163.44335938 7.45117188 C163.73146484 6.63326172 164.01957031 5.81535156 164.31640625 4.97265625 C164.56849854 4.23281494 164.82059082 3.49297363 165.08032227 2.73071289 C166 1 166 1 169 0 C170.875 0.55395508 170.875 0.55395508 173 1.51953125 C174.19266479 2.05598267 174.19266479 2.05598267 175.40942383 2.60327148 C176.26431396 3.00231689 177.1192041 3.4013623 178 3.8125 C178.88776123 4.22121338 179.77552246 4.62992676 180.69018555 5.05102539 C198.5536605 13.37024216 215.53618802 22.69206801 231 35 C231 35.33 231 35.66 231 36 C230.07251953 36.0093457 229.14503906 36.01869141 228.18945312 36.02832031 C224.7149212 36.07259846 221.24157594 36.13432714 217.76757812 36.20751953 C216.27029553 36.2355694 214.77286925 36.25686274 213.27539062 36.27099609 C200.07597638 36.40243124 200.07597638 36.40243124 188.79296875 42.89453125 C188.26316406 43.52746094 187.73335938 44.16039062 187.1875 44.8125 C186.64480469 45.43769531 186.10210937 46.06289063 185.54296875 46.70703125 C180.97543125 53.49473887 180.52241526 59.29416257 180.375 67.3125 C180.32412139 69.2878622 180.2696184 71.26313544 180.2109375 73.23828125 C180.19337402 74.10493408 180.17581055 74.97158691 180.15771484 75.86450195 C180 78 180 78 179 80 C176.26635742 80.80615234 176.26635742 80.80615234 172.60546875 81.5859375 C171.95020706 81.72763367 171.29494537 81.86932983 170.61982727 82.01531982 C169.2102761 82.31865974 167.79984876 82.61795059 166.38867188 82.91363525 C164.18564648 83.3753885 161.9852776 83.84834972 159.78515625 84.32373047 C153.43995685 85.68708981 147.09240428 87.00839805 140.70703125 88.171875 C139.81024658 88.33768066 138.91346191 88.50348633 137.98950195 88.67431641 C136.39317375 88.96330551 134.79410512 89.23775799 133.19213867 89.49365234 C124.85465585 90.99517168 118.9196312 95.19933335 114 102 C110.97058073 107.51703892 110.97058073 107.51703892 110 121 C27.83 121 -54.34 121 -139 121 C-137.87472538 114.24835228 -137.87472538 114.24835228 -135.85546875 110.90625 C-135.42556641 110.18566406 -134.99566406 109.46507812 -134.55273438 108.72265625 C-134.10220703 107.98917969 -133.65167969 107.25570312 -133.1875 106.5 C-132.74857422 105.76652344 -132.30964844 105.03304687 -131.85742188 104.27734375 C-129.88750909 101.00488833 -127.88093206 97.8180579 -125.6484375 94.71875 C-123.88656016 91.8129049 -123.71521998 91.17036185 -124.4375 88 C-124.72655677 82.72471403 -122.01613046 79.50115221 -118.9375 75.5 C-118.47206787 74.87609375 -118.00663574 74.2521875 -117.52709961 73.609375 C-114.84030614 70.30873115 -113.59972419 69.13737055 -109.31640625 68.15625 C-108.22199219 68.1046875 -107.12757812 68.053125 -106 68 C-102.91676156 67.3535652 -102.91676156 67.3535652 -102.00561523 65.1472168 C-101.50783569 64.08434448 -101.50783569 64.08434448 -101 63 C-99.57055664 61.31176758 -99.57055664 61.31176758 -97.91015625 59.64453125 C-97.29640137 59.02666748 -96.68264648 58.40880371 -96.05029297 57.7722168 C-95.39432129 57.12551025 -94.73834961 56.47880371 -94.0625 55.8125 C-93.38590332 55.1419458 -92.70930664 54.4713916 -92.01220703 53.78051758 C-86.61086857 48.48464904 -80.99033258 43.62185143 -75 39 C-74.0203125 38.21496094 -73.040625 37.42992187 -72.03125 36.62109375 C-59.28213172 26.46864733 -45.68865708 18.15894888 -31.25 10.625 C-30.13802246 10.04202148 -29.02604492 9.45904297 -27.88037109 8.85839844 C-6.32640211 -2.20063932 -6.32640211 -2.20063932 0 0 Z " fill="#8FD7F8" transform="translate(184,362)"/>
<path d="M0 0 C0.81210938 -0.00773438 1.62421875 -0.01546875 2.4609375 -0.0234375 C17.14906822 0.02363984 26.77574247 7.65469322 38 16.28271484 C39.31729486 17.2904871 40.65000356 18.27824785 41.99267578 19.25195312 C44.11700851 20.86441269 46.09251033 22.52675485 48.09716797 24.27929688 C60.08627789 34.27775757 70.29487479 34.85150032 85.5 34.375 C88.62513671 34.33137992 91.7499004 34.30488323 94.87527466 34.28536987 C96.80006139 34.26764139 98.72480406 34.23343444 100.64889526 34.17874146 C112.95041053 33.91663193 122.71204603 36.22275952 132.1875 44.25 C135.96266276 47.22161406 140.00584799 48.45101413 144.5625 49.75 C153.89256294 52.44041497 160.78688734 55.6808225 165.75 64.41796875 C168.19669715 69.54074092 168.68586305 75.0155208 166.90625 80.44140625 C163.11884923 88.48963289 156.523023 94.11226327 148.19003296 97.1325531 C141.40025286 99.08398754 135.32561506 99.59057788 128.2890625 99.41015625 C126.15105214 99.39831736 124.01302906 99.38861768 121.875 99.38085938 C118.56102096 99.35414164 115.24968466 99.31249245 111.93652344 99.2331543 C95.40940743 98.62681583 95.40940743 98.62681583 81.47554016 106.39154053 C80.1719965 107.65738826 78.89712923 108.95258574 77.625 110.25 C76.41736216 111.18611106 75.188838 112.09715876 73.92578125 112.95703125 C71.75153679 114.48894989 69.57950874 116.02368494 67.41015625 117.5625 C66.49580811 118.21025391 66.49580811 118.21025391 65.56298828 118.87109375 C61.986555 121.41577694 58.43177169 123.99044486 54.875 126.5625 C54.12395996 127.10503418 53.37291992 127.64756836 52.59912109 128.20654297 C48.66042006 131.05241555 44.72494991 133.9026625 40.79296875 136.7578125 C39.60429199 137.61959106 39.60429199 137.61959106 38.39160156 138.4987793 C36.89381823 139.58475071 35.39699281 140.67204517 33.90136719 141.76098633 C30.27125086 144.39125377 26.61326989 146.97728276 22.91015625 149.50390625 C21.8584021 150.22235718 21.8584021 150.22235718 20.78540039 150.95532227 C14.22097125 154.88923206 8.16224468 154.61677243 0.6875 154.625 C-0.47974609 154.64949219 -1.64699219 154.67398438 -2.84960938 154.69921875 C-13.72331798 154.73639382 -13.72331798 154.73639382 -18.375 150.25 C-21.10037369 145.65853415 -21.40076522 141.45077882 -20.375 136.25 C-18.13548266 131.63214315 -15.26280591 127.49671401 -12.3125 123.3125 C-11.5505763 122.20004271 -10.79079509 121.08611487 -10.03320312 119.97070312 C-8.54653279 117.7852869 -7.04983771 115.60814653 -5.54638672 113.43408203 C-2.3722397 108.77957052 0.63911808 104.0268121 3.625 99.25 C2.366875 99.30800781 1.10875 99.36601563 -0.1875 99.42578125 C-1.91662881 99.47276845 -3.64579875 99.51825874 -5.375 99.5625 C-6.19484375 99.60439453 -7.0146875 99.64628906 -7.859375 99.68945312 C-16.57733032 99.85456592 -24.27299624 97.12056416 -32.375 94.25 C-33.12642273 93.98516815 -33.87784546 93.7203363 -34.65203857 93.44747925 C-39.41931618 91.75582625 -44.16287156 90.00642243 -48.89575195 88.22094727 C-51.33066117 87.30567328 -53.77154105 86.40769688 -56.21289062 85.50976562 C-76.67179544 77.88337774 -76.67179544 77.88337774 -82.375 68.25 C-83.72065532 65.29425128 -84.87311483 62.27892285 -86.01171875 59.23828125 C-86.33662796 58.3882402 -86.66153717 57.53819916 -86.99629211 56.66239929 C-88.02534244 53.96502908 -89.04397784 51.26386076 -90.0625 48.5625 C-90.75779557 46.7360737 -91.45375257 44.90989905 -92.15039062 43.08398438 C-93.42023069 39.74929513 -94.68790737 36.41382622 -95.94799805 33.07543945 C-96.200186 32.40736771 -96.45237396 31.73929596 -96.71220398 31.05097961 C-98.24802222 26.87778416 -98.68297276 23.71560503 -98.375 19.25 C-96.85507896 16.06540354 -95.09204041 13.51420034 -92.375 11.25 C-87.28265671 9.55255224 -81.95648177 9.98105786 -76.625 9.9375 C-75.45710938 9.90849609 -74.28921875 9.87949219 -73.0859375 9.84960938 C-65.40043313 9.79297017 -60.55653815 10.141058 -54.8984375 15.70092773 C-53.44254664 17.29355563 -52.09018131 18.93418986 -50.75 20.625 C-50.29882812 21.17671875 -49.84765625 21.7284375 -49.3828125 22.296875 C-48.93421875 22.84601562 -48.485625 23.39515625 -48.0234375 23.9609375 C-47.5689624 24.50314941 -47.1144873 25.04536133 -46.64624023 25.60400391 C-45.375 27.25 -45.375 27.25 -43.49609375 30.609375 C-41.49105262 33.00767005 -40.31792827 33.260028 -37.17089844 33.81298828 C-33.12268675 34.0673504 -29.11642748 34.13434623 -25.0625 34.125 C-23.63993702 34.14313626 -22.2174054 34.16394191 -20.79492188 34.1875 C-17.32144147 34.23922691 -13.84891461 34.25443951 -10.375 34.25 C-11.4578125 32.69152344 -11.4578125 32.69152344 -12.5625 31.1015625 C-21.87045553 17.29296596 -21.87045553 17.29296596 -21.03515625 10.3046875 C-19.8354042 6.57054797 -18.36822664 4.85280577 -15.375 2.25 C-10.24194793 -0.00730603 -5.50071852 -0.05189357 0 0 Z " fill="#010101" transform="translate(221.375,12.75)"/>
<path d="M0 0 C12.2090837 9.81908077 21.62868775 23.08423313 24.32910156 38.76318359 C25.20991562 49.61850827 25.6542852 61.60907865 21.32910156 71.76318359 C20.87664062 72.86533203 20.42417969 73.96748047 19.95800781 75.10302734 C12.89100218 90.71144985 1.17644845 101.86437448 -14.7487793 108.36499023 C-22.44343314 111.22938249 -30.4827756 113.14114024 -38.41772461 115.21240234 C-41.4962874 116.01655031 -44.57104311 116.83414696 -47.64550781 117.65380859 C-49.61860748 118.17542793 -51.59190799 118.69628825 -53.56542969 119.21630859 C-54.4759761 119.45794739 -55.38652252 119.69958618 -56.32466125 119.94854736 C-70.87073414 123.73052801 -70.87073414 123.73052801 -77.67089844 120.76318359 C-82.8269633 116.22630215 -84.92390551 111.29205661 -86.54589844 104.76318359 C-86.78002441 103.87308594 -87.01415039 102.98298828 -87.25537109 102.06591797 C-87.77728444 100.07492764 -88.291686 98.08195779 -88.79980469 96.08740234 C-89.58108584 93.10592134 -90.41164794 90.14284529 -91.26591492 87.18156433 C-97.96129725 63.92293361 -102.27866912 42.08480599 -90.40136719 19.64990234 C-81.28213782 4.43746329 -67.85174434 -5.81110313 -50.67089844 -10.23681641 C-32.90769988 -13.30223696 -14.76546503 -10.92955083 0 0 Z M-46.67089844 44.76318359 C-48.09531347 48.73234009 -48.12316595 51.69202371 -46.48339844 55.57568359 C-43.315383 59.3991505 -41.87733359 60.60751454 -36.79589844 61.26318359 C-33.41457582 61.11149809 -32.3438142 60.57288004 -29.23339844 58.76318359 C-26.49338777 55.55536623 -25.66209112 53.8745479 -25.42871094 49.75927734 C-25.84102844 46.36098309 -27.49097925 44.30642265 -29.67089844 41.76318359 C-36.11727995 37.46559592 -41.83385183 39.10029976 -46.67089844 44.76318359 Z " fill="#FA626D" transform="translate(487.6708984375,234.23681640625)"/>
<path d="M0 0 C2.21967875 -0.06144272 4.43879426 -0.14981556 6.65625 -0.26660156 C26.03302084 -1.26679598 26.03302084 -1.26679598 32.61328125 3.83203125 C36.22514102 7.17605553 39.18293046 10.90502232 42.11035156 14.84448242 C42.96806565 15.87537546 43.83470922 16.89893742 44.7121582 17.91308594 C46.93548839 20.49421082 49.02328792 23.1523618 51.11035156 25.84448242 C51.88507813 26.80225586 52.65980469 27.7600293 53.45800781 28.74682617 C60.77834909 37.94655776 67.07369943 47.76269518 73.11035156 57.84448242 C73.83617432 59.05201172 73.83617432 59.05201172 74.57666016 60.28393555 C75.03508301 61.07219727 75.49350586 61.86045898 75.96582031 62.67260742 C76.37856201 63.37804687 76.79130371 64.08348633 77.21655273 64.81030273 C78.11035156 66.84448242 78.11035156 66.84448242 78.11035156 70.84448242 C20.36035156 70.84448242 -37.38964844 70.84448242 -96.88964844 70.84448242 C-96.88964844 60.53019671 -96.88964844 60.53019671 -92.88964844 55.84448242 C-89.70905581 53.72408734 -87.66866743 53.22344498 -83.95605469 52.47729492 C-82.75875732 52.23350098 -81.56145996 51.98970703 -80.32788086 51.73852539 C-78.40939331 51.35784912 -78.40939331 51.35784912 -76.45214844 50.96948242 C-75.13600434 50.70212758 -73.82000547 50.43405688 -72.50415039 50.1652832 C-66.61237424 48.96634285 -60.71525922 47.80191604 -54.80371094 46.70385742 C-53.90966553 46.5348291 -53.01562012 46.36580078 -52.09448242 46.19165039 C-50.47620741 45.88811593 -48.85599965 45.59462053 -47.23364258 45.3137207 C-40.60732431 44.06922469 -34.73960386 42.16878539 -30.45214844 36.78198242 C-28.37173682 32.87080858 -27.77221639 30.09572806 -27.74902344 25.73120117 C-27.72001953 24.22976563 -27.72001953 24.22976563 -27.69042969 22.69799805 C-27.65676654 20.59923051 -27.63836107 18.5001589 -27.63574219 16.40112305 C-27.4264349 7.81401633 -27.4264349 7.81401633 -24.46777344 4.17651367 C-18.1537544 -1.53480355 -8.10251723 0.17735378 0 0 Z " fill="#CBF39D" transform="translate(405.8896484375,412.155517578125)"/>
<path d="M0 0 C4.8265376 -0.67969733 9.19229745 -0.90335812 14 0 C17.84958376 3.08541265 20.26404866 6.93193752 23 11 C24.52648124 12.86343027 26.08814246 14.69873022 27.6875 16.5 C28.37199219 17.2940625 29.05648437 18.088125 29.76171875 18.90625 C34.26974569 23.1231827 38.48827258 24.37547897 44.57659912 24.35835266 C45.88300354 24.36221985 47.18940796 24.36608704 48.53540039 24.37007141 C49.97119314 24.35932978 51.40698413 24.34835078 52.84277344 24.3371582 C54.36435943 24.33635131 55.88594671 24.3369472 57.40753174 24.33883667 C60.67819008 24.34039523 63.9486636 24.33303124 67.21929169 24.31899452 C72.39774677 24.2978151 77.57597752 24.30263455 82.75445557 24.3120575 C97.47796202 24.3349032 112.20133419 24.32305844 126.92480469 24.28491211 C135.0612966 24.26406134 143.19750913 24.26482399 151.33399606 24.28844708 C156.47476018 24.3020805 161.61453094 24.28904386 166.75519514 24.25584948 C169.9636394 24.24143805 173.17164521 24.25220316 176.38005829 24.26983261 C177.8594306 24.27299197 179.33886751 24.26602687 180.81813049 24.24776649 C190.2393316 24.13842199 196.47747951 25.19296115 204 31 C209.32153563 34.926379 213.70915151 37.36983602 220.1875 39.0625 C225.70615599 40.50629973 229.32344648 41.566509 233 46 C233.75 48.5 233.75 48.5 233 51 C228.00643739 56.37768281 222.11661015 58.62502415 214.84445763 59.28743362 C211.07027836 59.41779551 207.30191592 59.45196025 203.52612305 59.45166016 C202.07942312 59.46229273 200.6327316 59.47412639 199.18605042 59.48706055 C195.27624914 59.5176831 191.36663094 59.52896643 187.45672202 59.53470278 C185.00365208 59.53907688 182.55062841 59.54746673 180.09757423 59.55720139 C171.50927972 59.59090788 162.92112191 59.60807627 154.33276367 59.61083984 C146.37841185 59.61386386 138.42484313 59.65418418 130.47071809 59.71198809 C123.60400939 59.76009781 116.73755594 59.78057226 109.87068015 59.78063047 C105.78644033 59.78116352 101.70296666 59.79226737 97.61890221 59.83180618 C80.91600996 59.98329168 65.4805686 60.01412384 49.97844887 52.88720512 C46.66869296 51.40299573 43.25300873 50.21323667 39.84375 48.98046875 C37.39482216 48.05214227 34.94687942 47.12121233 32.5 46.1875 C31.22793299 45.70619936 29.95579745 45.22507982 28.68359375 44.74414062 C14.79994541 39.46538449 14.79994541 39.46538449 12.11132812 33.64355469 C9.95463526 28.5133547 7.95485987 23.32532901 5.99853516 18.11621094 C5.24304618 16.10650184 4.47939519 14.10002666 3.71484375 12.09375 C3.2312888 10.81528638 2.74819854 9.53664689 2.265625 8.2578125 C1.61255371 6.52748779 1.61255371 6.52748779 0.94628906 4.76220703 C0 2 0 2 0 0 Z " fill="#F7F3F3" transform="translate(140,38)"/>
<path d="M0 0 C0.98419922 0.16048828 1.96839844 0.32097656 2.98242188 0.48632812 C13.10142364 2.16514755 23.20023551 3.90533753 33 7 C32.41050095 12.80191168 30.84189174 17.81998313 28.75 23.25 C28.46253906 24.05179687 28.17507813 24.85359375 27.87890625 25.6796875 C27.58371094 26.45054687 27.28851563 27.22140625 26.984375 28.015625 C26.59330566 29.05638184 26.59330566 29.05638184 26.19433594 30.11816406 C24.43648925 32.88788652 23.04278177 33.68451164 20 35 C16.40963239 35.62455683 12.81372657 35.86148116 9.1796875 36.09765625 C8.12524445 36.17745224 7.07080139 36.25724823 5.98440552 36.33946228 C2.61537413 36.59272531 -0.75456867 36.8286697 -4.125 37.0625 C-7.4737548 37.30235239 -10.82213786 37.5460453 -14.1701355 37.79624939 C-16.2499989 37.95091593 -18.33033491 38.09940307 -20.41116333 38.24049377 C-36.01619542 39.16324286 -36.01619542 39.16324286 -49 47 C-52.3013117 51.59065894 -55.03181564 56.42415271 -57.75 61.375 C-58.48369856 62.67819922 -59.2193649 63.98029261 -59.95703125 65.28125 C-61.02310508 67.16330657 -62.08719075 69.04623212 -63.14221191 70.93450928 C-65.62817502 75.38338739 -68.24405178 79.71417501 -71 84 C-76.27749285 83.46148032 -80.25645564 82.22656164 -85 80 C-84.43746013 75.16106479 -83.73342791 70.39570313 -82.84350586 65.60717773 C-79.50518495 50.0831806 -79.50518495 50.0831806 -83.25 35.3125 C-86.52953317 31.09595735 -90.58508007 27.67597207 -94.59008789 24.17089844 C-100.25378972 19.10763618 -104.25445475 13.42075534 -106 6 C-70.7113673 -2.92281585 -36.11140367 -5.96494057 0 0 Z " fill="#CAF29C" transform="translate(303,349)"/>
<path d="M0 0 C0 0.66 0 1.32 0 2 C-1.30664062 3.21411133 -1.30664062 3.21411133 -3.15625 4.58203125 C-4.18395508 5.35232666 -4.18395508 5.35232666 -5.23242188 6.13818359 C-5.98072266 6.69070801 -6.72902344 7.24323242 -7.5 7.8125 C-13.59719413 12.38796825 -19.60402358 17.0426614 -25.5 21.875 C-30.44863692 25.92749822 -35.41917182 29.93613931 -40.49609375 33.828125 C-41.96123009 34.92018238 -41.96123009 34.92018238 -43 36 C-43.37795173 39.40156558 -43.47578863 41.30567329 -41.51171875 44.171875 C-37.98172645 46.74113844 -34.69552539 46.46139746 -30.5 46.4375 C-19.67426442 46.75111644 -11.76012778 49.05500819 -3.625 56.5625 C6.44037732 67.40462669 9.18084978 79.66487116 10 94 C1.63609506 90.01373681 -6.45715178 85.65901258 -14.5 81.0625 C-23.31909754 76.04116792 -32.17906569 71.10097768 -41.10864258 66.27902222 C-42.44612297 65.55499901 -43.78160342 64.82726832 -45.11499023 64.09573364 C-46.99058388 63.06788173 -48.87302559 62.05384062 -50.7578125 61.04296875 C-51.8420752 60.45539795 -52.92633789 59.86782715 -54.04345703 59.26245117 C-57.04583341 57.98042902 -58.78735306 57.57651938 -62 58 C-64.25801194 59.36071046 -66.23752406 60.71435981 -68.3125 62.3125 C-69.56529274 63.24238748 -70.81924247 64.1707178 -72.07421875 65.09765625 C-72.72181152 65.57992676 -73.3694043 66.06219727 -74.03662109 66.55908203 C-77.18036341 68.86626521 -80.40157953 71.05622703 -83.625 73.25 C-90.76017233 78.12796594 -97.8433323 83.07798825 -104.91064453 88.05371094 C-108.91434584 90.86632945 -112.92966595 93.66208181 -116.97265625 96.41796875 C-117.698479 96.91449951 -118.42430176 97.41103027 -119.17211914 97.92260742 C-121 99 -121 99 -123 99 C-123.33374335 81.27451986 -123.42802956 65.12381677 -111 51 C-102.28825225 43.53056922 -92.8457665 39.71132537 -81.41015625 39.2734375 C-78.62908625 38.95791902 -77.21289135 38.74577782 -75 37 C-74.03532513 34.46698869 -73.29636121 32.10817442 -72.625 29.5 C-68.79883801 16.15382313 -62.14991956 6.61329837 -50.25 -0.8125 C-33.49811536 -10.00714345 -16.43064558 -8.82137119 0 0 Z " fill="#C9F19C" transform="translate(152,206)"/>
<path d="M0 0 C12.2090837 9.81908077 21.62868775 23.08423313 24.32910156 38.76318359 C25.20991562 49.61850827 25.6542852 61.60907865 21.32910156 71.76318359 C20.87664062 72.86533203 20.42417969 73.96748047 19.95800781 75.10302734 C12.89100218 90.71144985 1.17644845 101.86437448 -14.7487793 108.36499023 C-22.44343314 111.22938249 -30.4827756 113.14114024 -38.41772461 115.21240234 C-41.4962874 116.01655031 -44.57104311 116.83414696 -47.64550781 117.65380859 C-49.61860748 118.17542793 -51.59190799 118.69628825 -53.56542969 119.21630859 C-54.4759761 119.45794739 -55.38652252 119.69958618 -56.32466125 119.94854736 C-70.87073414 123.73052801 -70.87073414 123.73052801 -77.67089844 120.76318359 C-82.8269633 116.22630215 -84.92390551 111.29205661 -86.54589844 104.76318359 C-86.78002441 103.87308594 -87.01415039 102.98298828 -87.25537109 102.06591797 C-87.77728444 100.07492764 -88.291686 98.08195779 -88.79980469 96.08740234 C-89.58108584 93.10592134 -90.41164794 90.14284529 -91.26591492 87.18156433 C-97.96129725 63.92293361 -102.27866912 42.08480599 -90.40136719 19.64990234 C-81.28213782 4.43746329 -67.85174434 -5.81110313 -50.67089844 -10.23681641 C-32.90769988 -13.30223696 -14.76546503 -10.92955083 0 0 Z M-70.98339844 18.95068359 C-80.25362516 30.08637688 -83.8340772 42.47062461 -82.67089844 56.76318359 C-81.79860799 61.35757701 -80.5964749 65.8278554 -79.33447266 70.32568359 C-77.99703861 75.23846562 -76.8219809 80.19364994 -75.60839844 85.13818359 C-73.82236947 92.41264083 -71.89478413 99.60943915 -69.67089844 106.76318359 C-63.65089343 105.46715477 -57.68411607 104.03371696 -51.73339844 102.45068359 C-50.9207251 102.23484619 -50.10805176 102.01900879 -49.27075195 101.79663086 C-47.57988785 101.34604928 -45.88937764 100.89413768 -44.19921875 100.44091797 C-42.5350611 99.99482859 -40.87035933 99.55076332 -39.20507812 99.10888672 C-22.81229588 94.75072481 -7.838173 90.51665121 2.32910156 75.76318359 C8.68669587 64.05258099 11.61027158 52.00889579 8.64550781 38.69287109 C7.69995237 35.93859757 6.61027333 33.37757474 5.32910156 30.76318359 C4.91660156 29.91111328 4.50410156 29.05904297 4.07910156 28.18115234 C-1.43223956 17.98830272 -9.99171954 11.05207964 -20.67089844 6.76318359 C-21.56808594 6.39708984 -22.46527344 6.03099609 -23.38964844 5.65380859 C-40.64633706 0.96985025 -58.73283625 6.09342689 -70.98339844 18.95068359 Z " fill="#010000" transform="translate(487.6708984375,234.23681640625)"/>
<path d="M0 0 C0.95841797 -0.00386719 1.91683594 -0.00773438 2.90429688 -0.01171875 C3.89365234 -0.00011719 4.88300781 0.01148438 5.90234375 0.0234375 C7.39217773 0.00603516 7.39217773 0.00603516 8.91210938 -0.01171875 C9.86923828 -0.00785156 10.82636719 -0.00398437 11.8125 0 C13.11586304 0.00507568 13.11586304 0.00507568 14.44555664 0.01025391 C17.30501758 0.47385571 18.60155191 1.62118624 20.83984375 3.3984375 C23.74220042 3.48934422 23.74220042 3.48934422 26.96484375 3.2734375 C38.6761749 3.77781206 49.09366993 13.09896555 56.83984375 21.3984375 C53.94643781 23.50595792 51.04969731 25.60884829 48.15234375 27.7109375 C46.92741211 28.60329102 46.92741211 28.60329102 45.67773438 29.51367188 C44.48374023 30.37895508 44.48374023 30.37895508 43.265625 31.26171875 C42.53770752 31.79063721 41.80979004 32.31955566 41.05981445 32.86450195 C36.74232274 35.84776385 33.86024263 37.77538343 28.49308777 37.75920105 C27.43444519 37.76332504 26.37580261 37.76744904 25.28507996 37.771698 C24.13421402 37.76091217 22.98334808 37.75012634 21.79760742 37.73901367 C19.96771774 37.73967079 19.96771774 37.73967079 18.1008606 37.74034119 C14.76426664 37.73861167 11.42823242 37.72358696 8.09173751 37.70261931 C4.60172796 37.68384047 1.11171061 37.68210113 -2.37834167 37.67854309 C-8.98332473 37.66922615 -15.58815847 37.64461721 -22.19307584 37.61449462 C-29.71418841 37.58093962 -37.23530818 37.56446185 -44.756477 37.54940832 C-60.22447122 37.51806723 -75.69225982 37.46305967 -91.16015625 37.3984375 C-91.16015625 26.5084375 -91.16015625 15.6184375 -91.16015625 4.3984375 C-88.73260986 4.38385498 -86.30506348 4.36927246 -83.80395508 4.35424805 C-75.78115902 4.30389924 -67.75855699 4.23730362 -59.73595142 4.16272259 C-54.87208019 4.11800506 -50.00829298 4.07875194 -45.14428711 4.05200195 C-40.44977871 4.02598282 -35.75559343 3.98559019 -31.06128502 3.93525124 C-29.27078967 3.91857313 -27.48023843 3.90706473 -25.68967628 3.90082359 C-23.18055007 3.89119272 -20.67225226 3.86314622 -18.16333008 3.83081055 C-17.42389664 3.83224564 -16.6844632 3.83368073 -15.92262268 3.8351593 C-9.78204789 3.7233214 -5.98177037 0.02326459 0 0 Z " fill="#CD9773" transform="translate(295.16015625,198.6015625)"/>
<path d="M0 0 C2.76477785 1.1411667 4.51366861 2.15130485 6.578125 4.3359375 C7.37681178 7.83787185 7.39838407 11.22290422 7.4375 14.79296875 C7.79475049 38.48182848 17.2832237 65.14740622 32.578125 83.3359375 C31.25315004 86.45051033 30.11417807 87.95812431 27.19921875 89.66796875 C26.52890625 90.07096191 25.85859375 90.47395508 25.16796875 90.88916016 C24.45769531 91.30472168 23.74742188 91.7202832 23.015625 92.1484375 C16.87406205 95.85071033 11.08371731 99.71735728 5.578125 104.3359375 C-8.97540224 86.48478324 -14.61713086 57.13241963 -14.5546875 34.7578125 C-14.55564423 33.98334778 -14.55660095 33.20888306 -14.55758667 32.41094971 C-14.5582612 30.79089272 -14.55645823 29.1708329 -14.55224609 27.55078125 C-14.54685784 25.0780635 -14.55223087 22.60552493 -14.55859375 20.1328125 C-14.55793341 18.54947877 -14.55665316 16.96614515 -14.5546875 15.3828125 C-14.55671173 14.64939636 -14.55873596 13.91598022 -14.56082153 13.16033936 C-14.5438832 9.44548678 -14.52466436 5.90154196 -13.421875 2.3359375 C-8.34933313 -2.04489412 -6.06915803 -1.66412397 0 0 Z " fill="#CB9672" transform="translate(99.421875,281.6640625)"/>
<path d="M0 0 C32.6052902 -2.42210727 32.6052902 -2.42210727 40.125 2.73046875 C43.18462401 5.51658691 45.58265384 8.68332802 47.80761719 12.16210938 C49.54476203 14.83967415 51.65405234 17.16104133 53.75 19.5625 C55.17393385 21.36929636 56.59052271 23.18190361 58 25 C58.77472656 25.95777344 59.54945313 26.91554688 60.34765625 27.90234375 C67.66799753 37.10207534 73.96334787 46.91821276 80 57 C80.48388184 57.80501953 80.96776367 58.61003906 81.46630859 59.43945312 C81.92473145 60.22771484 82.3831543 61.01597656 82.85546875 61.828125 C83.26821045 62.53356445 83.68095215 63.23900391 84.10620117 63.96582031 C85 66 85 66 85 70 C73.78 70 62.56 70 51 70 C49.47375 67.1125 47.9475 64.225 46.375 61.25 C37.68529836 45.23756077 27.14077644 30.56469466 15 17 C14.1853125 16.08734375 13.370625 15.1746875 12.53125 14.234375 C11.08302201 12.62201451 9.62962944 11.01425583 8.16796875 9.4140625 C5.39101467 6.3218866 2.69414176 3.16433243 0 0 Z " fill="#B2E39D" transform="translate(399,413)"/>
<path d="M0 0 C5.82461601 4.08662575 11.28356395 8.88582428 13 16 C13.90940361 23.88732742 14.14906591 31.28529681 9.6171875 38.0703125 C4.37630745 44.323923 -1.41286351 49.29467355 -9.75390625 50.34765625 C-17.2351258 50.72028404 -22.90583534 49.42747198 -29 45 C-34.52894227 39.86995793 -38.59471551 35.20836102 -39.3359375 27.51171875 C-39.43574347 17.74071442 -38.47512709 11.62537324 -31.8125 4.25 C-22.8722807 -4.06250177 -10.88752287 -5.69120514 0 0 Z M-23 18 C-24.42441503 21.9691565 -24.45226751 24.92884011 -22.8125 28.8125 C-19.64448456 32.63596691 -18.20643515 33.84433095 -13.125 34.5 C-9.74367738 34.3483145 -8.67291577 33.80969645 -5.5625 32 C-2.82248933 28.79218264 -1.99119268 27.11136431 -1.7578125 22.99609375 C-2.17013 19.59779949 -3.82008081 17.54323905 -6 15 C-12.44638152 10.70241232 -18.16295339 12.33711617 -23 18 Z " fill="#020101" transform="translate(464,261)"/>
<path d="M0 0 C6.27 0 12.54 0 19 0 C19 26.4 19 52.8 19 80 C12.73 80 6.46 80 0 80 C0 53.6 0 27.2 0 0 Z " fill="#7A8C98" transform="translate(255,251)"/>
<path d="M0 0 C1.99600417 0.04516506 3.99210571 0.08622613 5.98828125 0.12304688 C10.86959409 0.22202703 15.74623247 0.37719426 20.625 0.5625 C17.48053617 3.7823131 14.18537658 6.43358616 10.5 9 C9.24179563 9.88746552 7.98400329 10.7755154 6.7265625 11.6640625 C6.06043945 12.13360352 5.39431641 12.60314453 4.70800781 13.08691406 C1.83364981 15.12308609 -1.02244072 17.18395405 -3.87573242 19.24951172 C-5.38313929 20.3388762 -6.89376447 21.42380031 -8.4074707 22.50439453 C-12.37133403 25.34213649 -16.25658982 28.23911277 -20.06640625 31.28125 C-33.93230757 42.16902471 -33.93230757 42.16902471 -44.1640625 41.01953125 C-44.89367187 40.86871094 -45.62328125 40.71789062 -46.375 40.5625 C-44.93423957 36.56242182 -43.01047447 33.24793751 -40.671875 29.703125 C-40.31160217 29.15444763 -39.95132935 28.60577026 -39.58013916 28.04046631 C-38.43259296 26.29502433 -37.27890137 24.55374539 -36.125 22.8125 C-34.99076179 21.09008448 -33.85771942 19.3669221 -32.72750854 17.64186096 C-31.61969814 15.96871621 -30.48399796 14.31414736 -29.34814453 12.65991211 C-27.33197894 9.70381449 -27.33197894 9.70381449 -26.24169922 6.74829102 C-21.86979523 -3.30788053 -9.20494996 -0.35995746 0 0 Z " fill="#E1DDE1" transform="translate(265.375,111.4375)"/>
<path d="M0 0 C7.29810231 2.24790664 14.06298821 5.18581518 20.9375 8.5 C22.03344482 9.02827393 23.12938965 9.55654785 24.25854492 10.10083008 C38.2930253 16.97509137 52.01035751 24.89108574 64 35 C64 35.33 64 35.66 64 36 C31.91334393 39.06188592 31.91334393 39.06188592 24.12475586 33.64208984 C21.87539569 31.70290769 19.75259036 29.67462704 17.67626953 27.55175781 C14.59802457 24.70216199 10.971225 22.69021575 7.375 20.5625 C3.01052403 17.93556059 -1.08727296 15.29058845 -5 12 C-4.35758106 10.186287 -3.71096881 8.37405876 -3.0625 6.5625 C-2.70285156 5.55316406 -2.34320313 4.54382813 -1.97265625 3.50390625 C-1 1 -1 1 0 0 Z " fill="#72C9F2" transform="translate(351,362)"/>
<path d="M0 0 C-0.71804255 4.70418532 -1.66374481 8.82736405 -4 13 C-9.74728296 16.01657129 -15.74662386 16.61078118 -22 15 C-24.13720703 13.89599609 -24.13720703 13.89599609 -26.2578125 12.5234375 C-27.04373779 12.02038086 -27.82966309 11.51732422 -28.6394043 10.99902344 C-29.45965088 10.4630957 -30.27989746 9.92716797 -31.125 9.375 C-31.96651611 8.83391602 -32.80803223 8.29283203 -33.67504883 7.73535156 C-35.35029492 6.657706 -37.02360229 5.57703983 -38.69482422 4.49316406 C-41.6802853 2.5593492 -44.68285646 0.65385497 -47.6875 -1.25 C-49.1252293 -2.16630699 -50.5628396 -3.082801 -52 -4 C-51 -6 -51 -6 -48.4375 -7.0625 C-32.0379906 -11.53509347 -13.98236227 -10.06730084 0 0 Z " fill="#AFE09A" transform="translate(70,218)"/>
<path d="M0 0 C18.60797372 -0.3594052 36.58392153 -0.04199788 55 3 C55.98419922 3.16048828 56.96839844 3.32097656 57.98242188 3.48632812 C68.10142364 5.16514755 78.20023551 6.90533753 88 10 C87.45144652 14.571279 86.58255197 18.67435795 85 23 C84.505 22.01 84.505 22.01 84 21 C81.9614321 20.29704555 79.91780826 19.60730506 77.859375 18.96484375 C74.70349891 17.89995114 71.69024115 16.61558063 68.625 15.3125 C61.32201446 12.29592301 53.81776601 10.00450153 46.25 7.75 C45.11385254 7.40880127 43.97770508 7.06760254 42.80712891 6.71606445 C31.94041951 3.53546768 21.62703802 1.74072244 10.3125 1.375 C9.31283203 1.33632813 8.31316406 1.29765625 7.28320312 1.2578125 C4.85563621 1.16489128 2.4280516 1.07903939 0 1 C0 0.67 0 0.34 0 0 Z " fill="#ABDB96" transform="translate(248,346)"/>
<path d="M0 0 C8.65810689 -1.1478014 14.13473596 -0.16684307 21.16357422 5.14819336 C22.23733726 5.98877866 23.30455049 6.83779423 24.36523438 7.69482422 C26.0406703 9.03247064 27.7513795 10.30441763 29.484375 11.56640625 C32.35984571 13.66651572 35.22850644 15.76283043 38 18 C38 18.33 38 18.66 38 19 C15.45833943 20.74127996 15.45833943 20.74127996 10.04785156 18.01708984 C6.96560416 15.28263226 5.49784376 11.75493935 4 8 C3.19965973 6.79001812 2.3727447 5.59634312 1.5 4.4375 C0 2 0 2 0 0 Z " fill="#DFDBDF" transform="translate(219,29)"/>
</svg>
